# xmcd
#
# Track frame offsets: 
#        150
#        26952
#        48505
#        69625
#        92887
#        123822
#        147917
#        163435
#        191587
#        210232
#        232357
#        256210
#
# Disc length: 3576 seconds
#
# Revision: 0
# Processed by: cddbd v1.5.2PL0 Copyright (c) Steve Scherf et al.
# Submitted via: ExactAudioCopy v0.95b4
#
DISCID=b50df60c
DTITLE=T-Bone Burnett - The True False Identity
DYEAR=2006
DGENRE=Blues
TTITLE0=Zombieland
TTITLE1=Palestine Texas
TTITLE2=Seven Times Hotter Than Fire
TTITLE3=There Would Be Hell To Pay
TTITLE4=Every Time I Feel The Shift
TTITLE5=I'm Going On A Long Journey Never To Return
TTITLE6=Hollywood Mecca Of The Movies
TTITLE7=Fear Country
TTITLE8=Baby Don't You Say You Love Me
TTITLE9=Earlier Baghdad (The Bounce)
TTITLE10=Blinded By The Darkness
TTITLE11=Shaken Rattled And Rolled
EXTD=
EXTT0=
EXTT1=
EXTT2=
EXTT3=
EXTT4=
EXTT5=
EXTT6=
EXTT7=
EXTT8=
EXTT9=
EXTT10=
EXTT11=
PLAYORDER=
